# xmcd
#
# Track frame offsets:
#	150
#	16131
#	33915
#	52459
#	70330
#	85340
#	103709
#	122045
#	138798
#	156540
#	173749
#	189445
#	208332
#	224138
#	237594
#	254879
#	276575
#	293982
#	308019
#	325754
#
# Disc length: 4518 seconds
#
# Revision: 0
# Processed by: cddbd v1.5.2PL0 Copyright (c) Steve Scherf et al.
# Submitted via: EasyCDDAExtractor 5.0.5.1
#
DISCID=4511a414
DTITLE=Various Artist -  HOTT COUNTRY # 134
DYEAR=1900
DGENRE=Country
TTITLE0=Dixie Chicks - Neighbor
TTITLE1=Brad Paisley - Ticks
TTITLE2=George Canyon - I WANT YOU TO LIVE
TTITLE3=Doc Walker - Driving With The Brakes On
TTITLE4=Toby Keith - HIGH MAINTENANCE WOMAN
TTITLE5=George Stait - WRAPPED
TTITLE6=Bon Jovi - You Want To Make A Memory (country version)
TTITLE7=Carolyn Dawn Johnson - Into You
TTITLE8=Jamie O'Neal - God Don't Make Mistakes (radio edit)
TTITLE9=Jason Micheal Carroll - Livin' Our love Song
TTITLE10=Bucky Convington - A DIFFERENT WORLD
TTITLE11=Randy Rogers Band - ONE MORE GOODBYE
TTITLE12=Jessie Farrell - Let's Talk About Love
TTITLE13=Teri Clark - Dirty Girl
TTITLE14=Carolyn Dawn Johnson - GOT A GOOD DAY
TTITLE15=Vince Gill - WHAT YOU GIVE AWAY
TTITLE16=Lucinda Williams - ARE YOU ALRIGHT
TTITLE17=Chris Cummings - LOVE IS FINE
TTITLE18=Kenny Rogers Ft Don Henley - CALLING ME
TTITLE19=Hal Ketchum - SMALL TOWN SATURDAY NIGHT
EXTD=September 2006\n
EXTT0=
EXTT1=
EXTT2=
EXTT3=
EXTT4=
EXTT5=
EXTT6=
EXTT7=
EXTT8=
EXTT9=
EXTT10=
EXTT11=
EXTT12=
EXTT13=
EXTT14=
EXTT15=
EXTT16=
EXTT17=
EXTT18=
EXTT19=
PLAYORDER=
